# xmcd
#
# Track frame offsets: 
#        150
#        11642
#        28182
#        42832
#        57402
#        71180
#        84975
#        97265
#        111515
#        126082
#        142087
#        156507
#        172457
#        187117
#        201605
#        216960
#        230847
#        245695
#        259787
#        274777
#        289987
#        305185
#        321820
#
# Disc length: 4474 seconds
#
# Revision: 1
# Processed by: cddbd v1.5.2PL0 Copyright (c) Steve Scherf et al.
# Submitted via: ExactAudioCopyFreeDBPlugin 1.0
#
DISCID=88117817
DTITLE=Walter Davis - Complete Recorded Works Vol. 3 (1937-1938)
DYEAR=1994
DGENRE=Blues
TTITLE0=Good Gal
TTITLE1=Holiday Blues
TTITLE2=Streamline Woman
TTITLE3=Big Jack Engine Blues
TTITLE4=Guiding Rod
TTITLE5=Talk's All Over Town
TTITLE6=My Babe
TTITLE7=If You Ever Get Lonesome
TTITLE8=I Did Everything I Could
TTITLE9=When Nights Are Lonesome
TTITLE10=Million-Dollar Baby
TTITLE11=Candy Man
TTITLE12=If You Only Understand (Pet Cream Blues)
TTITLE13=I Hear My Baby Crying
TTITLE14=Walking the Avenue
TTITLE15=Easy Goin' Mama
TTITLE16=Friendless
TTITLE17=Angel Child -- Part 2
TTITLE18=13 Highway
TTITLE19=Homesick
TTITLE20=If You Treat Me Right
TTITLE21=What Is Wrong with You
TTITLE22=Love Will Kill You
EXTD=Document DOCD-5283
EXTT0=
EXTT1=
EXTT2=
EXTT3=
EXTT4=
EXTT5=
EXTT6=
EXTT7=
EXTT8=
EXTT9=
EXTT10=
EXTT11=
EXTT12=
EXTT13=
EXTT14=
EXTT15=
EXTT16=
EXTT17=
EXTT18=
EXTT19=
EXTT20=
EXTT21=
EXTT22=
PLAYORDER=
